<svg width="19" height="20" viewBox="0 0 19 20" fill="none" xmlns="http://www.w3.org/2000/svg">
<g clip-path="url(#clip0_242_2)">
<path fill-rule="evenodd" clip-rule="evenodd" d="M11.7571 9.93575C11.6154 9.40158 11.3447 8.89742 10.9457 8.47825C9.70908 7.17658 7.70379 7.17575 6.46721 8.47825L2.51046 12.6433C1.27387 13.9458 1.27308 16.0558 2.51046 17.3574C3.74704 18.6599 5.75312 18.6583 6.98812 17.3574L10.0297 14.1566L10.2933 14.1641C10.6132 14.1641 10.9282 14.1307 11.2346 14.0666L7.54783 17.9466C6.77596 18.7599 5.76262 19.1666 4.74929 19.1666C3.73596 19.1666 2.72262 18.7599 1.95075 17.9466C0.405415 16.3207 0.405415 13.6799 1.95075 12.0541L5.9075 7.88908C6.67937 7.07575 7.6935 6.66908 8.70683 6.66908C9.71937 6.66908 10.7335 7.07575 11.5054 7.88908C11.8957 8.29992 12.187 8.77492 12.3802 9.28242L11.7571 9.93575ZM7.24225 10.0583C7.38316 10.5941 7.65471 11.0999 8.0545 11.5216C9.29108 12.8241 11.2972 12.8224 12.5322 11.5216L16.4897 7.35658C17.7271 6.05492 17.7271 3.94409 16.4897 2.64242C15.2531 1.34075 13.2478 1.33992 12.0112 2.64242L8.97046 5.84325L8.70683 5.83575C8.387 5.83575 8.07191 5.86908 7.76554 5.93325L11.4515 2.05325C12.2234 1.23992 13.2375 0.833252 14.2509 0.833252C15.2634 0.833252 16.2775 1.23992 17.0494 2.05325C18.594 3.67908 18.594 6.31908 17.0494 7.94575L13.0919 12.1108C12.32 12.9241 11.3067 13.3308 10.2933 13.3308C9.28 13.3308 8.26666 12.9241 7.49479 12.1108C7.10371 11.6983 6.81158 11.2216 6.61841 10.7124L7.24225 10.0583Z" fill="#F2206C"/>
</g>
<defs>
<clipPath id="clip0_242_2">
<rect width="19" height="20" fill="white"/>
</clipPath>
</defs>
</svg>
